<?xml version="1.0" encoding="UTF-8"?><svg xmlns="http://www.w3.org/2000/svg" xmlns:xlink="http://www.w3.org/1999/xlink" fill-opacity="1" color-rendering="auto" color-interpolation="auto" stroke="black" text-rendering="auto" stroke-linecap="square" width="603" stroke-miterlimit="10" stroke-opacity="1" shape-rendering="auto" fill="black" stroke-dasharray="none" font-weight="normal" stroke-width="1" height="289" font-family="'Dialog'" font-style="normal" stroke-linejoin="miter" font-size="12" stroke-dashoffset="0" image-rendering="auto">
  <!--Generated by ySVG-->
  <defs id="genericDefs"/>
  <g>
    <defs id="defs1">
      <linearGradient x1="270.2" gradientUnits="userSpaceOnUse" x2="842.8" y1="162.9" y2="265.1" id="linearGradient1" spreadMethod="pad">
        <stop stop-opacity="1" stop-color="rgb(232,238,247)" offset="0%"/>
        <stop stop-opacity="1" stop-color="rgb(183,201,227)" offset="100%"/>
      </linearGradient>
      <clipPath clipPathUnits="userSpaceOnUse" id="clipPath1">
        <path d="M0 0 L603 0 L603 289 L0 289 L0 0 Z"/>
      </clipPath>
      <clipPath clipPathUnits="userSpaceOnUse" id="clipPath2">
        <path d="M255 147 L858 147 L858 436 L255 436 L255 147 Z"/>
      </clipPath>
      <clipPath clipPathUnits="userSpaceOnUse" id="clipPath3">
        <path d="M298 193 L298 253 L421 253 L421 193 Z"/>
      </clipPath>
      <clipPath clipPathUnits="userSpaceOnUse" id="clipPath4">
        <path d="M601 193 L601 253 L780 253 L780 193 Z"/>
      </clipPath>
      <clipPath clipPathUnits="userSpaceOnUse" id="clipPath5">
        <path d="M270 393 L270 421 L449 421 L449 393 Z"/>
      </clipPath>
      <clipPath clipPathUnits="userSpaceOnUse" id="clipPath6">
        <path d="M539 393 L539 421 L662 421 L662 393 Z"/>
      </clipPath>
      <clipPath clipPathUnits="userSpaceOnUse" id="clipPath7">
        <path d="M719 393 L719 421 L842 421 L842 393 Z"/>
      </clipPath>
    </defs>
    <g fill="white" transform="translate(-255,-147)" stroke="white">
      <rect x="255" width="603" height="289" y="147" clip-path="url(#clipPath2)" stroke="none"/>
    </g>
    <g fill="url(#linearGradient1)" stroke-miterlimit="1.45" transform="matrix(1,0,0,1,-255,-147)" stroke-linecap="butt" stroke="url(#linearGradient1)">
      <path d="M270.2 162.9 L842.8 162.9 L842.8 265.1 L270.2 265.1 Z" clip-path="url(#clipPath2)" stroke="none"/>
      <path fill="none" d="M270.2 162.9 L842.8 162.9 L842.8 265.1 L270.2 265.1 Z" clip-path="url(#clipPath2)" stroke="black"/>
      <text x="276.2" y="180.0387" clip-path="url(#clipPath2)" fill="black" font-family="sans-serif" stroke="none" xml:space="preserve">Bridge</text>
    </g>
    <g fill="rgb(255,204,0)" transform="matrix(1,0,0,1,-255,-147)" stroke="rgb(255,204,0)">
      <rect x="299" width="121" height="58" y="194" clip-path="url(#clipPath2)" stroke="none"/>
    </g>
    <g fill="yellow" transform="matrix(1,0,0,1,-255,-147)" stroke="yellow">
      <rect x="298" width="1" height="60" y="193" clip-path="url(#clipPath2)" stroke="none"/>
      <rect x="299" width="121" height="1" y="193" clip-path="url(#clipPath2)" stroke="none"/>
      <rect x="299" y="252" clip-path="url(#clipPath2)" fill="rgb(178,142,0)" width="122" height="1" stroke="none"/>
      <rect x="420" y="193" clip-path="url(#clipPath2)" fill="rgb(178,142,0)" width="1" height="59" stroke="none"/>
    </g>
    <g font-size="13" stroke-miterlimit="1.45" font-weight="bold" font-family="sans-serif" transform="matrix(1,0,0,1,-255,-147)" stroke-linecap="butt">
      <text x="330.8516" xml:space="preserve" y="210.6669" clip-path="url(#clipPath3)" stroke="none">Window</text>
    </g>
    <g transform="matrix(1,0,0,1,-255,-147)">
      <line y2="218" fill="none" x1="299" clip-path="url(#clipPath3)" x2="420" y1="218"/>
      <line y2="228" fill="none" x1="299" clip-path="url(#clipPath3)" x2="420" y1="228"/>
      <text stroke-linecap="butt" x="303.4" y="244.8715" clip-path="url(#clipPath3)" font-family="sans-serif" stroke="none" xml:space="preserve" stroke-miterlimit="1.45">drawText()</text>
      <rect x="602" y="194" clip-path="url(#clipPath2)" fill="rgb(255,204,0)" width="177" height="58" stroke="none"/>
      <rect x="601" y="193" clip-path="url(#clipPath2)" fill="yellow" width="1" height="60" stroke="none"/>
      <rect x="602" y="193" clip-path="url(#clipPath2)" fill="yellow" width="177" height="1" stroke="none"/>
      <rect x="602" y="252" clip-path="url(#clipPath2)" fill="rgb(178,142,0)" width="178" height="1" stroke="none"/>
      <rect x="779" y="193" clip-path="url(#clipPath2)" fill="rgb(178,142,0)" width="1" height="59" stroke="none"/>
    </g>
    <g stroke-miterlimit="1.45" font-weight="bold" font-family="sans-serif" transform="matrix(1,0,0,1,-255,-147)" stroke-linecap="butt">
      <text x="610.5604" xml:space="preserve" y="209.7387" clip-path="url(#clipPath4)" stroke="none">WindowImplementation</text>
    </g>
    <g transform="matrix(1,0,0,1,-255,-147)">
      <line y2="217" fill="none" x1="602" clip-path="url(#clipPath4)" x2="779" y1="217"/>
      <line y2="227" fill="none" x1="602" clip-path="url(#clipPath4)" x2="779" y1="227"/>
      <text stroke-linecap="butt" x="606.4" y="243.7074" clip-path="url(#clipPath4)" font-family="sans-serif" stroke="none" xml:space="preserve" stroke-miterlimit="1.45">impDrawText()</text>
      <rect x="271" y="394" clip-path="url(#clipPath2)" fill="rgb(255,204,0)" width="177" height="26" stroke="none"/>
      <rect x="270" y="393" clip-path="url(#clipPath2)" fill="yellow" width="1" height="28" stroke="none"/>
      <rect x="271" y="393" clip-path="url(#clipPath2)" fill="yellow" width="177" height="1" stroke="none"/>
      <rect x="271" y="420" clip-path="url(#clipPath2)" fill="rgb(178,142,0)" width="178" height="1" stroke="none"/>
      <rect x="448" y="393" clip-path="url(#clipPath2)" fill="rgb(178,142,0)" width="1" height="27" stroke="none"/>
    </g>
    <g font-size="13" stroke-miterlimit="1.45" font-weight="bold" font-family="sans-serif" transform="matrix(1,0,0,1,-255,-147)" stroke-linecap="butt">
      <text x="296.3616" xml:space="preserve" y="410.0669" clip-path="url(#clipPath5)" stroke="none">ExtendedWindow</text>
    </g>
    <g fill="rgb(255,204,0)" transform="matrix(1,0,0,1,-255,-147)" stroke="rgb(255,204,0)">
      <rect x="540" width="121" height="26" y="394" clip-path="url(#clipPath2)" stroke="none"/>
      <rect x="539" y="393" clip-path="url(#clipPath2)" fill="yellow" width="1" height="28" stroke="none"/>
      <rect x="540" y="393" clip-path="url(#clipPath2)" fill="yellow" width="121" height="1" stroke="none"/>
      <rect x="540" y="420" clip-path="url(#clipPath2)" fill="rgb(178,142,0)" width="122" height="1" stroke="none"/>
      <rect x="661" y="393" clip-path="url(#clipPath2)" fill="rgb(178,142,0)" width="1" height="27" stroke="none"/>
    </g>
    <g font-size="13" stroke-miterlimit="1.45" font-weight="bold" font-family="sans-serif" transform="matrix(1,0,0,1,-255,-147)" stroke-linecap="butt">
      <text x="553.1959" xml:space="preserve" y="410.0669" clip-path="url(#clipPath6)" stroke="none">ImpXWindow</text>
    </g>
    <g fill="rgb(255,204,0)" transform="matrix(1,0,0,1,-255,-147)" stroke="rgb(255,204,0)">
      <rect x="720" width="121" height="26" y="394" clip-path="url(#clipPath2)" stroke="none"/>
      <rect x="719" y="393" clip-path="url(#clipPath2)" fill="yellow" width="1" height="28" stroke="none"/>
      <rect x="720" y="393" clip-path="url(#clipPath2)" fill="yellow" width="121" height="1" stroke="none"/>
      <rect x="720" y="420" clip-path="url(#clipPath2)" fill="rgb(178,142,0)" width="122" height="1" stroke="none"/>
      <rect x="841" y="393" clip-path="url(#clipPath2)" fill="rgb(178,142,0)" width="1" height="27" stroke="none"/>
    </g>
    <g font-size="13" stroke-miterlimit="1.45" font-weight="bold" font-family="sans-serif" transform="matrix(1,0,0,1,-255,-147)" stroke-linecap="butt">
      <text x="733.5005" xml:space="preserve" y="410.0669" clip-path="url(#clipPath7)" stroke="none">ImpYWindow</text>
    </g>
    <g fill="rgb(255,204,0)" transform="matrix(1,0,0,1,-255,-147)" stroke="rgb(255,204,0)">
      <path d="M447.5 277.9 L617.5 277.9 L617.5 292.9 L632.5 292.9 L632.5 322.1 L447.5 322.1 Z" clip-path="url(#clipPath2)" stroke="none"/>
      <path fill="white" d="M617.5 277.9 L617.5 292.9 L632.5 292.9 Z" clip-path="url(#clipPath2)" fill-rule="evenodd" stroke="none"/>
    </g>
    <g stroke-linecap="butt" transform="matrix(1,0,0,1,-255,-147)" stroke-miterlimit="1.45">
      <path fill="none" d="M447.5 277.9 L617.5 277.9 L617.5 292.9 L632.5 292.9 L632.5 322.1 L447.5 322.1 Z" clip-path="url(#clipPath2)"/>
      <path fill="none" d="M617.5 277.9 L617.5 292.9 L632.5 292.9 Z" fill-rule="evenodd" clip-path="url(#clipPath2)"/>
      <text x="476.5547" xml:space="preserve" y="304.1543" font-family="sans-serif" clip-path="url(#clipPath2)" stroke="none">imp-&gt;impDrawText()</text>
      <path fill="none" d="M428.5744 224 L593.3796 224" clip-path="url(#clipPath2)"/>
      <path fill="white" d="M421.5744 224 L428.5744 219 L435.5744 224 L428.5744 229 Z" clip-path="url(#clipPath2)" stroke="none"/>
      <path fill="none" d="M421.5744 224 L428.5744 219 L435.5744 224 L428.5744 229 Z" clip-path="url(#clipPath2)"/>
      <path d="M601.3796 224 L589.3796 219 L592.3796 224 L589.3796 229 Z" clip-path="url(#clipPath2)" stroke="none"/>
      <text x="433.725" xml:space="preserve" y="217.1699" font-family="sans-serif" clip-path="url(#clipPath2)" stroke="none">imp</text>
      <path fill="none" d="M360 393.0328 L360 269.3606" clip-path="url(#clipPath2)"/>
      <path fill="white" d="M360 254.3606 L354 270.3606 L366 270.3606 Z" clip-path="url(#clipPath2)" stroke="none"/>
      <path fill="none" d="M360 254.3606 L354 270.3606 L366 270.3606 Z" clip-path="url(#clipPath2)"/>
      <path fill="none" d="M601.0602 393.0254 L600.6 347 L691.2 347 L691.2 269.4197" clip-path="url(#clipPath2)"/>
      <path fill="white" d="M691.2 254.4197 L685.2 270.4197 L697.2 270.4197 Z" clip-path="url(#clipPath2)" stroke="none"/>
      <path fill="none" d="M691.2 254.4197 L685.2 270.4197 L697.2 270.4197 Z" clip-path="url(#clipPath2)"/>
      <path fill="none" d="M781.0602 393.0254 L780.6 347 L691.2 347 L691.2 269.3921" clip-path="url(#clipPath2)"/>
      <path fill="white" d="M691.2 254.3921 L685.2 270.3921 L697.2 270.3921 Z" clip-path="url(#clipPath2)" stroke="none"/>
      <path fill="none" d="M691.2 254.3921 L685.2 270.3921 L697.2 270.3921 Z" clip-path="url(#clipPath2)"/>
      <path fill="none" stroke-dasharray="6,2" d="M390 258.4147 L390 300 L408.925 300 L447.4859 300" clip-path="url(#clipPath2)"/>
    </g>
    <g stroke-linecap="butt" transform="matrix(1,0,0,1,-255,-147)" fill-opacity="0" fill="rgb(0,0,0)" stroke-dasharray="6,2" stroke="rgb(0,0,0)" stroke-opacity="0" stroke-miterlimit="1.45">
      <path d="M390 250.4147 C392.2091 250.4147 394 252.2056 394 254.4147 C394 256.6239 392.2091 258.4147 390 258.4147 C387.7909 258.4147 386 256.6239 386 254.4147 C386 252.2056 387.7909 250.4147 390 250.4147 Z" clip-path="url(#clipPath2)" stroke="none"/>
    </g>
    <g stroke-linecap="butt" transform="matrix(1,0,0,1,-255,-147)" stroke-miterlimit="1.45">
      <path fill="none" d="M390 250.4147 C392.2091 250.4147 394 252.2056 394 254.4147 C394 256.6239 392.2091 258.4147 390 258.4147 C387.7909 258.4147 386 256.6239 386 254.4147 C386 252.2056 387.7909 250.4147 390 250.4147 Z" clip-path="url(#clipPath2)"/>
    </g>
  </g>
</svg>
